<?xml version="1.0" ?><svg enable-background="new 0 0 52 52" id="Layer_1" version="1.1" viewBox="0 0 52 52" xml:space="preserve" xmlns="http://www.w3.org/2000/svg" xmlns:xlink="http://www.w3.org/1999/xlink"><g><g><path d="M48.636322,18.6799927v18h-7.1867676c-0.4133301-1.159668-1.5100098-2-2.8158569-2    c-0.3178101,0-0.6187134,0.0634766-0.9067993,0.1561279l-3.6211548-6.1843262l3.0296021-1.5328369l-1.7581177-3.4745483    l7.5864868-3.9644165L34.9236755,3.3200073L1.363678,20.8599854l9.8800049,4.539978l4.2399902,8.6400146l11.0731812-5.786438    l1.6390381,3.3883667l4.1220703-2.0855713l3.8040771,6.4967651c-0.3061523,0.4699707-0.4883423,1.0273438-0.4883423,1.6268921    c0,1.6500244,1.3499756,3,3,3c1.3058472,0,2.4025269-0.840332,2.8158569-2h7.1867676v10h2v-30H48.636322z"/></g><g><polygon fill="#3A92CC" points="5.1305237,24.7919312 9.5201111,33.7268677 12.3711243,32.2370605 9.7618103,26.9197388   "/></g></g></svg>