<svg id="ew5rRgBHdE31" xmlns="http://www.w3.org/2000/svg" xmlns:xlink="http://www.w3.org/1999/xlink" viewBox="0 0 499.997 500.002" shape-rendering="geometricPrecision" text-rendering="geometricPrecision" project-id="9394639d165548168205c9a51e2ea028" export-id="e311731931dc4b09814c052b2ca04fec" cached="false"><g><g><path d="M248.997506,0C111.482947,0,0,111.481831,0,249.004973C0,386.509191,111.482947,497.999986,248.997506,497.999986c137.519538,0,249.002485-111.490795,249.002485-248.995013C497.999991,111.481831,386.517044,0,248.997506,0Z" transform="translate(-1.16118 1.16118)" fill="#fcb342"/></g></g><path d="M2,23.875C2,11.79375,11.79375,2,23.875,2h206.25C242.20625,2,252,11.79375,252,23.875s-9.79375,21.875-21.875,21.875h-206.25C11.79375,45.75,2,35.95625,2,23.875ZM127,195.75c27.61375,0,50-22.38625,50-50s-22.38625-50-50-50c-27.61425,0-50,22.38625-50,50s22.38575,50,50,50Zm31.25-50c0,17.25875-13.99125,31.25-31.25,31.25s-31.25-13.99125-31.25-31.25s13.99125-31.25,31.25-31.25s31.25,13.99125,31.25,31.25ZM14.5,64.5h225v75C239.5,201.6325,189.1325,252,127,252C64.868,252,14.5,201.6325,14.5,139.5v-75ZM127,214.5c37.97,0,68.75-30.78,68.75-68.75s-30.78-68.75-68.75-68.75c-37.969625,0-68.75,30.78-68.75,68.75s30.780375,68.75,68.75,68.75Z" transform="translate(122.998 136.017)" fill="#fff"/><g transform="translate(-307.591048 8.000047)"><g transform="translate(0 387.098)"><path d="M65.0366,60.1948l3.8275,2.2309.4663.2723l8.4197-6.8081L73.46,53.3867l-8.4234,6.8081Z" fill="#fff"/><path d="M250,500c-66.779167,0-129.556251-25.996876-176.789583-73.210417C25.996718,379.556251,0,316.779167,0,250s25.996718-129.556251,73.210417-176.789583C120.443749,25.996718,183.220833,0,250,0s129.556251,25.996718,176.789583,73.210417C474.003124,120.443749,500,183.220833,500,250s-25.996876,129.556251-73.210417,176.789583C379.556251,474.003124,316.779167,500,250,500Zm0-480.842448C122.717187,19.157552,19.157552,122.717187,19.157552,250s103.559635,230.842708,230.842448,230.842708s230.842708-103.559896,230.842708-230.842708-103.559896-230.842448-230.842708-230.842448Z" transform="translate(305.591048-394.936844)" clip-rule="evenodd" fill="#fff" fill-rule="evenodd"/></g></g></svg>
