<svg viewBox="0 0 70 70" xml:space="preserve" xmlns="http://www.w3.org/2000/svg" enable-background="new 0 0 70 70"><path d="M21.95 6.1 17.2 16.37l1.99.92 22.35 10.33c1.75-2.67 5.23-3.74 8.22-2.36l9.17 4.24 3.13 1.45 5.44-6.13L24.77 5.06a2.121 2.121 0 0 0-2.82 1.04zm18.84 11.87c-.17.37-.53.58-.91.58-.14 0-.28-.03-.42-.09l-14.6-6.75c-.5-.23-.72-.83-.49-1.33.23-.5.82-.72 1.33-.49l14.6 6.75c.5.24.72.83.49 1.33zm4.99 2.31c-.17.37-.53.58-.91.58-.14 0-.28-.03-.42-.09l-.93-.43c-.5-.23-.72-.83-.49-1.33.23-.5.83-.72 1.33-.49l.93.43c.5.23.72.83.49 1.33z" fill="#0004ff" class="fill-000000"></path><path d="m58.09 31.32-3.84 8.32-37.4-17.29 1.5-3.24 23.92 11.05.94-1.44a4.553 4.553 0 0 1 3.82-2.06c.65 0 1.29.14 1.89.42l9.17 4.24zM59.99 37.31c-.71 1.52-1.64 2.59-3.16 1.89l-.61-.29 2.55-5.53.61.29c1.53.7 1.32 2.1.61 3.64zM35.94 33.4a4.553 4.553 0 0 1-6.04 2.21c-2.28-1.06-3.28-3.75-2.23-6.03l8.27 3.82zM24.37 45.25h-9.36v2h9.36a5.47 5.47 0 0 1-.09-1c0-.34.03-.68.09-1zM30.9 37.97v2.75c-.32-.06-.66-.09-1-.09s-.68.03-1 .09v-3.37c.05.03.11.05.16.08.59.27 1.21.46 1.84.54zM33.52 46.25c0 2-1.61 3.62-3.62 3.62s-3.62-1.61-3.62-3.62 1.61-3.62 3.62-3.62 3.62 1.61 3.62 3.62zM3.5 65.14c-.55 0-1-.45-1-1V28.35c0-.55.45-1 1-1s1 .45 1 1v35.78c0 .56-.45 1.01-1 1.01zM12.51 37.72v17.05c0 1.4-1.13 2.54-2.54 2.54H5.5V35.18h4.47c1.41 0 2.54 1.14 2.54 2.54z" fill="#0004ff" class="fill-000000"></path></svg>