<svg width="96" height="96" viewBox="0 0 96 96" fill="none" xmlns="http://www.w3.org/2000/svg">
<circle cx="48" cy="48" r="48" fill="#86C232"/>
<path d="M86.7073 52.9015L31.6082 20.8008L28.9297 25.4452L73.8259 51.6033L86.7073 52.9015Z" fill="white"/>
<path d="M28.385 26.3848L27.8478 27.3211C27.8453 27.3211 27.8441 27.3211 27.8441 27.3211L25.2141 31.876C25.2141 31.8785 25.2141 31.8798 25.2141 31.8798C23.1362 35.4797 24.371 40.0793 27.9709 42.1609L39.5689 48.8571C39.3041 49.316 39.1511 49.8494 39.1511 50.4165C39.1511 50.9947 39.3115 51.5356 39.5839 52.0019L34.5067 59.586C34.4172 59.5785 34.3276 59.5748 34.2381 59.5748C32.9958 59.5748 31.9289 60.2948 31.4253 61.343H20.9837V58.5899H17.6002V54.5275H14.0786V70.7811H17.6002V66.7186H20.9837V64.0514H31.4253C31.9289 65.0959 32.9958 65.8196 34.2381 65.8196C35.9616 65.8196 37.3605 64.4207 37.3605 62.6972C37.3605 62.0593 37.1665 61.4661 36.8382 60.9737L41.8371 53.5053C41.9788 53.5277 42.1243 53.5389 42.2735 53.5389C43.43 53.5389 44.4335 52.9122 44.9744 51.9795L61.0378 61.2498L72.4269 52.043L28.385 26.3848Z" fill="white"/>
<path d="M65.0366 60.1948L68.8641 62.4257L69.3304 62.698L77.7501 55.8899L73.46 53.3867L65.0366 60.1948Z" fill="white"/>
<path fill-rule="evenodd" clip-rule="evenodd" d="M48 96C35.1784 96 23.1252 91.0086 14.0564 81.9436C4.99137 72.8748 0 60.8216 0 48C0 35.1784 4.99137 23.1252 14.0564 14.0564C23.1252 4.99137 35.1784 0 48 0C60.8216 0 72.8748 4.99137 81.9436 14.0564C91.0086 23.1252 96 35.1784 96 48C96 60.8216 91.0086 72.8748 81.9436 81.9436C72.8748 91.0086 60.8216 96 48 96ZM48 3.67825C23.5617 3.67825 3.67825 23.5617 3.67825 48C3.67825 72.4383 23.5617 92.3218 48 92.3218C72.4383 92.3218 92.3218 72.4383 92.3218 48C92.3218 23.5617 72.4383 3.67825 48 3.67825Z" fill="white"/>
</svg>
