<svg id="eod0OEAZHmJ1" xmlns="http://www.w3.org/2000/svg" xmlns:xlink="http://www.w3.org/1999/xlink" viewBox="0 0 499.997 500.002" shape-rendering="geometricPrecision" text-rendering="geometricPrecision" project-id="b78380eea7404fda83d3e9cc73992136" export-id="1ac4837b621e4466a6251fe7eeeed658" cached="false"><g><g><path d="M244.997546,0C109.692056,0,0,109.690958,0,245.004893C0,380.300208,109.692056,489.999986,244.997546,489.999986c135.310389,0,245.002446-109.699778,245.002446-244.995093C489.999991,109.690958,380.307935,0,244.997546,0Z" transform="translate(-1.16117 2.16117)" fill="#4fc9f7"/><g><path d="M304.375,288.09l68.616-39.132-196.598-82.243-9.381,22.435-1.392-.888c-2.935-1.872-6.801-1.572-9.421.776l-29.765,26.583v-40.185c0-.466-.044-.922-.082-1.363h-12.869c-.044.441-.082.897-.082,1.363v115.257c0,.451.039.907.082,1.358h12.869c.039-.451.082-.907.082-1.358v-54.068l33.093-29.571-7.281,17.386l152.129,63.65Z" fill="#fff"/><polygon points="372.559,276.274 352.326,324.642 366.37,330.511 386.602,282.158" fill="#fff"/><polygon points="371.671,263.065 369.314,262.08 305.025,298.748 164.155,239.814 157.407,255.943 194.744,271.559 197.296,284.132 254.11,307.635 264.801,300.868 342.299,333.281" fill="#fff"/></g></g></g><g transform="translate(0 387.098165)"><path d="M65.0366,60.1948l3.8275,2.2309.4663.2723l8.4197-6.8081L73.46,53.3867l-8.4234,6.8081Z" fill="#fff"/><path d="M250,500c-66.779167,0-129.556251-25.996876-176.789583-73.210417C25.996718,379.556251,0,316.779167,0,250s25.996718-129.556251,73.210417-176.789583C120.443749,25.996718,183.220833,0,250,0s129.556251,25.996718,176.789583,73.210417C474.003124,120.443749,500,183.220833,500,250s-25.996876,129.556251-73.210417,176.789583C379.556251,474.003124,316.779167,500,250,500Zm0-480.842448C122.717187,19.157552,19.157552,122.717187,19.157552,250s103.559635,230.842708,230.842448,230.842708s230.842708-103.559896,230.842708-230.842708-103.559896-230.842448-230.842708-230.842448Z" transform="translate(-2.83914-387.098165)" clip-rule="evenodd" fill="#fff" fill-rule="evenodd"/></g></svg>
