<svg id="eVn9C0FNYPg1" xmlns="http://www.w3.org/2000/svg" xmlns:xlink="http://www.w3.org/1999/xlink" viewBox="0 0 24 24" shape-rendering="geometricPrecision" text-rendering="geometricPrecision" project-id="1327eccd6ac6443f9c486e19277e7b89" export-id="bb9e8819e98a45ec9148a8c2bd3835bc" cached="false"><path d="M16.3394,9.32245c.404-.37656.4263-1.00933.0497-1.41334s-1.0093-.42628-1.4133-.04973L12.0497,10.5866L9.32245,7.66048c-.37656-.40401-1.00933-.42627-1.41334-.04972s-.42628,1.00932-.04973,1.41334l2.72722,2.9261-2.92612,2.7273c-.40401.3765-.42627,1.0093-.04972,1.4133s1.00932.4263,1.41334.0497l2.9261-2.7272l2.7273,2.9261c.3765.404,1.0093.4263,1.4133.0497s.4263-1.0093.0497-1.4133l-2.7272-2.9261l2.9261-2.72725Z" fill="#fff"/><path d="M1,12C1,5.92487,5.92487,1,12,1s11,4.92487,11,11-4.9249,11-11,11-11-4.9249-11-11Zm11,9c-4.97056,0-9-4.0294-9-9s4.02944-9,9-9s9,4.02944,9,9-4.0294,9-9,9Z" clip-rule="evenodd" fill="#fff" fill-rule="evenodd"/></svg>
