<svg id="eVP9GH3UXtq1" xmlns="http://www.w3.org/2000/svg" xmlns:xlink="http://www.w3.org/1999/xlink" viewBox="0 0 512 512" shape-rendering="geometricPrecision" text-rendering="geometricPrecision" project-id="f15b301f732e44949a44f69fcc57a5b4" export-id="26308ebbe03d4ffeab750cfc927842f5" cached="false"><path d="M501.303,132.765c-5.887-22.03-23.235-39.377-45.265-45.265C416.106,76.8,256,76.8,256,76.8s-160.107,0-200.039,10.7c-22.026,5.888-39.377,23.235-45.264,45.265C0,172.693,0,256.003,0,256.003s0,83.308,10.697,123.232c5.887,22.03,23.238,39.382,45.264,45.269C95.893,435.2,256,435.2,256,435.2s160.106,0,200.038-10.696c22.03-5.887,39.378-23.239,45.265-45.269c10.696-39.924,10.696-123.232,10.696-123.232s0-83.31-10.696-123.238ZM204.797,332.804v-153.603l133.019,76.802-133.019,76.801Z" clip-rule="evenodd" fill="#838383" stroke-linejoin="round" stroke-miterlimit="2"/></svg>
