<?xml version="1.0" ?><!DOCTYPE svg  PUBLIC '-//W3C//DTD SVG 1.1//EN'  'http://www.w3.org/Graphics/SVG/1.1/DTD/svg11.dtd'><svg height="100%" style="fill-rule:evenodd;clip-rule:evenodd;stroke-linecap:round;stroke-linejoin:round;stroke-miterlimit:1.5;" version="1.1" viewBox="0 0 512 512" width="100%" xml:space="preserve" xmlns="http://www.w3.org/2000/svg" xmlns:serif="http://www.serif.com/" xmlns:xlink="http://www.w3.org/1999/xlink"><g><g transform="matrix(1,0,0,1,33.9887,82.402)"><path d="M459.762,98.063C457.109,76.84 450.668,60.096 437.854,48.854C427.659,39.909 407.77,17.988 407.77,17.988C407.77,17.988 182.412,26.718 76.684,32.983C37.946,35.278 16.132,57.865 11.603,98.063C4.853,157.979 -4.421,287.965 -4.421,287.965C-4.421,287.965 19.132,311.913 28.561,322.709C38.993,334.652 54.515,341.438 76.684,342.892C182.412,349.823 288.226,351.013 393.867,342.892C437.233,339.558 453.658,323.064 459.762,277.811C467.844,217.895 467.269,158.115 459.762,98.063ZM189.17,258.606L308.195,187.955L189.17,117.304L189.17,258.606Z" style="fill:white;stroke:black;stroke-width:10px;"/></g><g transform="matrix(3.50428,0,0,3.50428,-399.734,-34.9948)"><path d="M169.259,58.331L177.852,67.147" style="fill:none;stroke:black;stroke-width:2.92px;stroke-linejoin:miter;stroke-miterlimit:5;"/></g><g transform="matrix(3.50428,0,0,3.50428,-400.734,2.00519)"><path d="M169.259,58.331L177.852,67.147" style="fill:none;stroke:black;stroke-width:2.92px;stroke-linejoin:miter;stroke-miterlimit:5;"/></g><g transform="matrix(3.50428,0,0,3.50428,-400.734,37.0052)"><path d="M169.259,58.331L177.852,67.147" style="fill:none;stroke:black;stroke-width:2.92px;stroke-linejoin:miter;stroke-miterlimit:5;"/></g><g transform="matrix(3.50428,0,0,3.50428,-352.734,-8.99481)"><path d="M169.259,58.331L177.852,67.147" style="fill:none;stroke:black;stroke-width:2.92px;stroke-linejoin:miter;stroke-miterlimit:5;"/></g><g transform="matrix(3.50428,0,0,3.50428,-399.734,73.0052)"><path d="M169.259,58.331L177.852,67.147" style="fill:none;stroke:black;stroke-width:2.92px;stroke-linejoin:miter;stroke-miterlimit:5;"/></g><g transform="matrix(3.50428,0,0,3.50428,-151.374,-104.019)"><path d="M169.259,58.331L177.852,67.147" style="fill:none;stroke:black;stroke-width:2.92px;stroke-linejoin:miter;stroke-miterlimit:5;"/></g><g transform="matrix(3.50428,0,0,3.50428,-559.608,170.922)"><path d="M169.259,58.331L177.852,67.147" style="fill:none;stroke:black;stroke-width:2.92px;stroke-linejoin:miter;stroke-miterlimit:5;"/></g><g transform="matrix(3.50428,0,0,3.50428,-509.734,189.005)"><path d="M169.259,58.331L177.852,67.147" style="fill:none;stroke:black;stroke-width:2.92px;stroke-linejoin:miter;stroke-miterlimit:5;"/></g><g transform="matrix(3.50428,0,0,3.50428,-473.734,189.005)"><path d="M169.259,58.331L177.852,67.147" style="fill:none;stroke:black;stroke-width:2.92px;stroke-linejoin:miter;stroke-miterlimit:5;"/></g><g transform="matrix(3.50428,0,0,3.50428,-436.734,191.005)"><path d="M169.259,58.331L177.852,67.147" style="fill:none;stroke:black;stroke-width:2.92px;stroke-linejoin:miter;stroke-miterlimit:5;"/></g><g transform="matrix(3.50428,0,0,3.50428,-400.734,192.005)"><path d="M169.259,58.331L177.852,67.147" style="fill:none;stroke:black;stroke-width:2.92px;stroke-linejoin:miter;stroke-miterlimit:5;"/></g><g transform="matrix(3.50428,0,0,3.50428,-363.734,192.005)"><path d="M169.259,58.331L177.852,67.147" style="fill:none;stroke:black;stroke-width:2.92px;stroke-linejoin:miter;stroke-miterlimit:5;"/></g><g transform="matrix(3.50428,0,0,3.50428,-325.734,192.005)"><path d="M169.259,58.331L177.852,67.147" style="fill:none;stroke:black;stroke-width:2.92px;stroke-linejoin:miter;stroke-miterlimit:5;"/></g><g transform="matrix(3.50428,0,0,3.50428,-285.734,192.005)"><path d="M169.259,58.331L177.852,67.147" style="fill:none;stroke:black;stroke-width:2.92px;stroke-linejoin:miter;stroke-miterlimit:5;"/></g><g transform="matrix(3.50428,0,0,3.50428,-245.734,192.005)"><path d="M169.259,58.331L177.852,67.147" style="fill:none;stroke:black;stroke-width:2.92px;stroke-linejoin:miter;stroke-miterlimit:5;"/></g><g transform="matrix(3.50428,0,0,3.50428,-207.734,190.005)"><path d="M169.259,58.331L177.852,67.147" style="fill:none;stroke:black;stroke-width:2.92px;stroke-linejoin:miter;stroke-miterlimit:5;"/></g><g transform="matrix(3.50428,0,0,3.50428,-171.734,185.005)"><path d="M169.259,58.331L177.852,67.147" style="fill:none;stroke:black;stroke-width:2.92px;stroke-linejoin:miter;stroke-miterlimit:5;"/></g><g transform="matrix(3.50428,0,0,3.50428,-143.734,167.005)"><path d="M169.259,58.331L177.852,67.147" style="fill:none;stroke:black;stroke-width:2.92px;stroke-linejoin:miter;stroke-miterlimit:5;"/></g><g transform="matrix(3.50428,0,0,3.50428,-131.734,137.005)"><path d="M169.259,58.331L177.852,67.147" style="fill:none;stroke:black;stroke-width:2.92px;stroke-linejoin:miter;stroke-miterlimit:5;"/></g><g transform="matrix(3.50428,0,0,3.50428,-127.734,100.005)"><path d="M169.259,58.331L177.852,67.147" style="fill:none;stroke:black;stroke-width:2.92px;stroke-linejoin:miter;stroke-miterlimit:5;"/></g><g transform="matrix(3.50428,0,0,3.50428,-125.734,62.0052)"><path d="M169.259,58.331L177.852,67.147" style="fill:none;stroke:black;stroke-width:2.92px;stroke-linejoin:miter;stroke-miterlimit:5;"/></g><g transform="matrix(3.50428,0,0,3.50428,-125.734,24.0052)"><path d="M169.259,58.331L177.852,67.147" style="fill:none;stroke:black;stroke-width:2.92px;stroke-linejoin:miter;stroke-miterlimit:5;"/></g><g transform="matrix(3.50428,0,0,3.50428,-126.734,-12.9948)"><path d="M169.259,58.331L177.852,67.147" style="fill:none;stroke:black;stroke-width:2.92px;stroke-linejoin:miter;stroke-miterlimit:5;"/></g><g transform="matrix(3.50428,0,0,3.50428,-129.734,-48.9948)"><path d="M169.259,58.331L177.852,67.147" style="fill:none;stroke:black;stroke-width:2.92px;stroke-linejoin:miter;stroke-miterlimit:5;"/></g><g transform="matrix(1,0,0,1,3.98868,51.402)"><path d="M459.762,98.063C454.999,59.955 438.02,36.288 393.867,32.983C288.254,25.076 182.412,26.718 76.684,32.983C37.946,35.278 16.132,57.865 11.603,98.063C4.853,157.979 4.514,217.895 11.603,277.811C16.361,318.023 34.473,340.125 76.684,342.892C182.412,349.823 288.226,351.013 393.867,342.892C437.233,339.558 453.658,323.064 459.762,277.811C467.844,217.895 467.269,158.115 459.762,98.063ZM189.17,258.606L308.195,187.955L189.17,117.304L189.17,258.606Z" style="fill:white;stroke:black;stroke-width:10px;"/></g></g></svg>