<svg id="eJnRzLcCioI1" xmlns="http://www.w3.org/2000/svg" xmlns:xlink="http://www.w3.org/1999/xlink" viewBox="0 0 508 433" shape-rendering="geometricPrecision" text-rendering="geometricPrecision" project-id="3555b2493dfa4d55bc01698938929ed9" export-id="b65c64b41dfe49f3a44e8a65c5f611df" cached="false"><defs><filter id="eJnRzLcCioI2-filter" x="-150%" width="400%" y="-150%" height="400%"><feGaussianBlur id="eJnRzLcCioI2-filter-drop-shadow-0-blur" in="SourceAlpha" stdDeviation="0,0"/><feOffset id="eJnRzLcCioI2-filter-drop-shadow-0-offset" dx="0" dy="0" result="tmp"/><feFlood id="eJnRzLcCioI2-filter-drop-shadow-0-flood" flood-color="#000"/><feComposite id="eJnRzLcCioI2-filter-drop-shadow-0-composite" operator="in" in2="tmp"/><feMerge id="eJnRzLcCioI2-filter-drop-shadow-0-merge" result="result"><feMergeNode id="eJnRzLcCioI2-filter-drop-shadow-0-merge-node-1"/><feMergeNode id="eJnRzLcCioI2-filter-drop-shadow-0-merge-node-2" in="SourceGraphic"/></feMerge></filter></defs><g transform="matrix(1 0 0 0.846674 0 19.16575)" filter="url(#eJnRzLcCioI2-filter)"><path d="M4,15C4,6.71573,10.7157,0,19,0h470c8.284,0,15,6.71573,15,15v220c0,8.284-6.716,15-15,15h-470c-8.2843,0-15-6.716-15-15L4,15Z" transform="translate(1 0)" fill="#32a5c2"/><path d="M19,10h470c2.761,0,5,2.2386,5,5v220c0,2.761-2.239,5-5,5h-470c-2.7614,0-5-2.239-5-5v-220c0-2.7614,2.2386-5,5-5Z" transform="translate(-2 0)" fill="none" stroke="#32a5c2" stroke-width="20"/></g><rect width="458" height="155" rx="0" ry="0" transform="translate(25 47.5)" fill="#efefef" stroke="#fff" stroke-width="10"/><rect width="449.854" height="143" rx="0" ry="0" transform="translate(30 28)" fill="none"/><path d="M131.898,63.2727l17.578,55.2553h.675l17.613-55.2553h17.046L159.739,136h-19.816L114.817,63.2727h17.081Zm84.81,0h18.963l20.028,48.8633h.852L276.58,63.2727h18.963v72.7273h-14.915v-47.3366h-.603L261.203,135.645h-10.156L232.226,88.4858h-.603v47.5142h-14.915v-72.7273ZM370.809,84.1889c-.284-2.8646-1.503-5.0899-3.657-6.6761-2.155-1.5862-5.078-2.3793-8.772-2.3793-2.509,0-4.628.3551-6.356,1.0654-1.728.6865-3.054,1.6453-3.977,2.8764-.9,1.231-1.35,2.6278-1.35,4.1903-.047,1.3021.225,2.4385.817,3.4091.615.9707,1.456,1.8111,2.521,2.5213c1.065.6866,2.297,1.2903,3.693,1.8111c1.397.4972,2.889.9233,4.475,1.2784l6.534,1.5625c3.172.7102,6.084,1.6572,8.736,2.8409c2.651,1.1837,4.948,2.6397,6.889,4.3681c1.941,1.728,3.444,3.764,4.51,6.108c1.089,2.344,1.645,5.031,1.669,8.061-.024,4.451-1.16,8.31-3.409,11.577-2.226,3.243-5.445,5.764-9.659,7.563-4.191,1.776-9.245,2.664-15.164,2.664-5.871,0-10.985-.9-15.341-2.699-4.332-1.799-7.717-4.463-10.156-7.99-2.415-3.551-3.681-7.943-3.8-13.175h14.88c.165,2.439.864,4.475,2.095,6.108c1.255,1.61,2.924,2.829,5.007,3.658c2.107.805,4.486,1.207,7.138,1.207c2.604,0,4.865-.379,6.782-1.136c1.942-.758,3.445-1.811,4.51-3.161c1.066-1.349,1.598-2.9,1.598-4.652c0-1.633-.485-3.006-1.456-4.119-.947-1.113-2.343-2.06-4.19-2.841-1.823-.781-4.06-1.491-6.712-2.131l-7.919-1.988c-6.131-1.492-10.973-3.824-14.524-6.9959-3.551-3.1724-5.315-7.4456-5.291-12.8196-.024-4.4035,1.148-8.2505,3.516-11.5412c2.391-3.2908,5.67-5.8594,9.836-7.706c4.167-1.8466,8.902-2.7699,14.205-2.7699c5.398,0,10.109.9233,14.133,2.7699c4.049,1.8466,7.197,4.4152,9.446,7.706c2.249,3.2907,3.409,7.1022,3.481,11.4346h-14.738Z" transform="translate(0 25.3458)" fill="#50abca"/><path d="M302.417,253L248,410.087L193.583,253h108.834Z" transform="matrix(.474678 0 0 0.964437 134.279852-11.145184)" fill="rgba(255,255,255,0)" stroke="#32a5c2" stroke-width="15"/></svg>
