<svg id="ezs9XqIQMO71" xmlns="http://www.w3.org/2000/svg" xmlns:xlink="http://www.w3.org/1999/xlink" viewBox="0 0 24 24" shape-rendering="geometricPrecision" text-rendering="geometricPrecision" project-id="1327eccd6ac6443f9c486e19277e7b89" export-id="f07e31ffdeef40bbb32d00168ec68975" cached="false"><path d="M13.078159,12.360028L13.4133,12.0497l2.9261-2.72725c.404-.37656.4263-1.00933.0497-1.41334s-1.0093-.42628-1.4133-.04973L12.0497,10.5866l-.335522.310766c0,0,.006951-.006288-.397059.370262s-.397064.370268-.397063.370268L10.5866,11.9502L7.66048,14.6775c-.40401.3765-.42627,1.0093-.04972,1.4133s1.00932.4263,1.41334.0497l2.9261-2.7272" transform="matrix(.731354 0.681998-.681998 0.731354 11.407681-4.960201)" fill="#fff"/><path d="M1,12C1,5.92487,5.92487,1,12,1s11,4.92487,11,11-4.9249,11-11,11-11-4.9249-11-11Zm11,9c-4.97056,0-9-4.0294-9-9s4.02944-9,9-9s9,4.02944,9,9-4.0294,9-9,9Z" transform="matrix(.731354 0.681998-.681998 0.731354 11.407736-4.960225)" clip-rule="evenodd" fill="#fff" fill-rule="evenodd"/></svg>
